<svg width="28" height="28" viewBox="0 0 28 28" fill="none" xmlns="http://www.w3.org/2000/svg">
<rect opacity="0.01" width="28" height="28" fill="white"/>
<path d="M6.48923 17.4736C6.2224 17.4736 6.01997 17.4828 5.81755 17.4721C5.36823 17.4483 5.02856 17.1506 5.02243 16.6994C5.00709 15.4977 4.97106 14.2923 5.04467 13.0953C5.11061 12.0295 6.07441 10.6606 7.68382 10.715C8.3601 10.7381 9.03791 10.7181 9.71495 10.7189C11.0721 10.7196 12.0942 11.5921 12.3181 12.941C12.3411 13.0792 12.361 13.218 12.3848 13.37H14.0011C14.0011 12.8505 14.0011 12.3433 14.0011 11.8369C14.0011 11.0565 13.998 10.2769 14.0019 9.49654C14.0057 8.7484 14.4719 8.27727 15.2187 8.26269C15.4357 8.25809 15.6534 8.25655 15.8704 8.26269C16.3343 8.27727 16.628 8.57192 16.6165 9.00545C16.6057 9.42057 16.3136 9.69374 15.8681 9.70218C15.6672 9.70602 15.4664 9.70218 15.2494 9.70218V18.5118C15.494 18.5118 15.7209 18.5033 15.9463 18.5133C16.3389 18.531 16.6088 18.8141 16.6165 19.2047C16.6249 19.6121 16.3512 19.9129 15.941 19.929C15.6734 19.9398 15.4042 19.9375 15.1359 19.9305C14.4726 19.9121 14.0072 19.4502 14.0034 18.7857C13.9957 17.6217 14.0011 16.4584 14.0011 15.2944C14.0011 15.1563 14.0011 15.0174 14.0011 14.8532H12.3725C12.3725 15.3282 12.3725 15.7962 12.3725 16.2643C12.3725 17.2403 12.1724 17.4444 11.1948 17.4767C11.1212 17.479 11.0476 17.492 10.8689 17.512C10.8689 18.3867 10.872 19.253 10.8681 20.1185C10.8658 20.6173 10.8597 21.1161 10.8413 21.6148C10.8168 22.2724 10.4802 22.597 9.82919 22.5993C9.11382 22.6024 8.39844 22.6008 7.68306 22.5993C6.91017 22.5985 6.60117 22.2962 6.5797 21.5089C6.54673 20.3073 6.51913 19.1057 6.48999 17.9041C6.48692 17.7782 6.48999 17.6524 6.48999 17.4728L6.48923 17.4736ZM6.26227 16.0241C6.36194 16.0349 6.45012 16.0617 6.5337 16.051C7.35565 15.9482 7.7559 16.4216 7.76127 17.2664C7.7697 18.5056 7.82261 19.7449 7.85711 20.9841C7.86094 21.1068 7.87321 21.2289 7.88088 21.3424H9.5662C9.5662 21.1866 9.56313 21.06 9.5662 20.9327C9.603 19.6551 9.63597 18.3775 9.67968 17.0999C9.70575 16.3548 10.0124 16.064 10.7455 16.0525C10.8681 16.051 10.9901 16.0379 11.1258 16.0295C11.1258 15.0849 11.1733 14.1772 11.112 13.2764C11.0514 12.3847 10.5024 11.9489 9.6122 11.9481C8.98653 11.9481 8.36086 11.9474 7.7352 11.9481C6.97304 11.9497 6.33741 12.4185 6.2776 13.1804C6.20476 14.1173 6.25997 15.0642 6.25997 16.0241H6.26227ZM8.6783 5.00005C10.0945 5.00849 11.2362 6.15716 11.2316 7.5675C11.227 8.97323 10.07 10.1288 8.66373 10.1311C7.23987 10.1342 6.08975 8.96939 6.09818 7.5345C6.10738 6.1211 7.25674 4.99161 8.6783 5.00005ZM9.94114 7.5652C9.94267 6.85389 9.36071 6.26766 8.65606 6.27226C7.95985 6.2761 7.39476 6.84008 7.38556 7.53987C7.37559 8.26115 7.93762 8.84355 8.64916 8.85122C9.35688 8.8589 9.93961 8.2788 9.94114 7.5652Z" fill="#1C1C1C"/>
<rect x="19.8" y="16" width="1.4" height="7" rx="0.7" fill="#1C1C1C"/>
<rect x="24" y="18.7998" width="1.4" height="7" rx="0.7" transform="rotate(90 24 18.7998)" fill="#1C1C1C"/>
<rect x="19.8" y="5" width="1.4" height="7" rx="0.7" fill="#1C1C1C"/>
<rect x="24" y="7.7998" width="1.4" height="7" rx="0.7" transform="rotate(90 24 7.7998)" fill="#1C1C1C"/>
</svg>
