<svg width="21" height="22" viewBox="0 0 21 22" fill="none" xmlns="http://www.w3.org/2000/svg">
<path d="M17.9797 7.02602L17.238 1.75375C16.959 0.770249 15.9457 0 14.9308 0H3.06917C2.05431 0 1.04095 0.770249 0.762039 1.75375L0.0203247 7.02602C0.00686644 7.07349 0 7.12261 0 7.17202V7.70328C0 6.83109 0.586395 7.64175 1.41216 7.96875V15.0456C1.41216 16.1232 2.28214 17 3.35165 17H14.6485C15.7179 17 16.588 16.1232 16.588 15.0456V7.96875C17.4136 7.64175 18 6.83109 18 7.70328V7.17202C18 7.12261 17.9931 7.07349 17.9797 7.02602ZM1.77621 2.04574C1.92467 1.52209 2.52878 1.06279 3.06917 1.06279H14.9308C15.4711 1.06279 16.0753 1.52209 16.2238 2.04574L16.7735 6.64062H1.22649L1.77621 2.04574ZM4.4437 7.70341H6.77815C6.77815 6.53301 6.25452 7.06053 5.61086 7.06053C4.96733 7.06053 4.4437 6.53301 4.4437 7.70341ZM7.83284 7.70341H10.1672C10.1672 6.53301 9.64353 7.06053 9 7.06053C8.35648 7.06053 7.83284 6.53301 7.83284 7.70341ZM11.2218 7.70341H13.5562C13.5562 6.53301 13.0327 7.06053 12.389 7.06053C11.7455 7.06053 11.2218 6.53301 11.2218 7.70341ZM1.05469 7.70328L3.38901 7.70341C3.38901 6.53301 2.86551 7.06053 2.22185 7.06053C1.57832 7.06053 1.05469 6.53287 1.05469 7.70328ZM5.29102 15.9372V12.7311H7.06064V15.9372H5.29102ZM14.6485 15.9372H8.11533V12.1997C8.11533 11.9063 7.87912 11.6683 7.58798 11.6683H4.76367C4.47253 11.6683 4.23633 11.9063 4.23633 12.1997V15.9372H3.35165C2.86372 15.9372 2.46684 15.5373 2.46684 15.0456V8.10949C3.04582 8.04514 3.55833 7.75578 3.91635 7.33024C4.32436 7.81487 4.93231 8.12333 5.61086 8.12333C6.2894 8.12333 6.89763 7.81487 7.3055 7.33024C7.71336 7.81487 8.32146 8.12333 9 8.12333C9.67854 8.12333 10.2866 7.81487 10.6945 7.33024C11.1024 7.81487 11.7105 8.12333 12.389 8.12333C13.0676 8.12333 13.6756 7.81487 14.0835 7.33024C14.4417 7.75578 14.9542 8.04514 15.5332 8.10949V15.0456C15.5333 15.5373 15.1363 15.9372 14.6485 15.9372ZM15.7782 7.06053C15.1345 7.06053 14.611 6.53287 14.611 7.70341H16.9453C16.9453 6.53287 16.4217 7.06053 15.7782 7.06053Z" fill="#1C1C1C"/>
<rect x="10.5" y="11.5" width="10.5" height="10.5" fill="white" fill-opacity="0.01"/>
<rect x="14.7" y="12.55" width="2.1" height="8.4" rx="1.05" fill="#1C1C1C"/>
<rect x="19.95" y="15.7" width="2.1" height="8.4" rx="1.05" transform="rotate(90 19.95 15.7)" fill="#1C1C1C"/>
</svg>
