<svg width="14" height="19" viewBox="0 0 14 19" fill="none" xmlns="http://www.w3.org/2000/svg">
<path d="M5.13457 19H8.06859C8.47371 19 8.8021 18.6716 8.8021 18.2665C8.8021 17.8614 8.47371 17.533 8.06859 17.533H5.13457C4.72945 17.533 4.40106 17.8614 4.40106 18.2665C4.40106 18.6716 4.72945 19 5.13457 19Z" fill="#475E88"/>
<path d="M6.60156 0.222229C6.19644 0.222229 5.86805 0.55062 5.86805 0.955736V1.74187C3.38312 2.09887 1.46701 4.24162 1.46701 6.82379V11.3332C1.46701 11.5917 1.35057 11.8269 1.17731 11.9184C0.451106 12.3019 0 13.0479 0 13.8655C0 15.0788 0.987153 16.066 2.20052 16.066H11.0026C12.216 16.066 13.2031 15.0788 13.2031 13.8655C13.2031 13.0479 12.752 12.3019 12.0258 11.9184C11.8525 11.8269 11.7361 11.5918 11.7361 11.3332V6.82379C11.7361 4.24162 9.82 2.09887 7.33507 1.74187V0.955736C7.33507 0.55062 7.00667 0.222229 6.60156 0.222229ZM10.2691 6.82379V11.3332C10.2691 12.1453 10.6797 12.8666 11.3408 13.2157C11.5846 13.3444 11.7361 13.5934 11.7361 13.8655C11.7361 14.2699 11.4071 14.599 11.0026 14.599H2.20052C1.79606 14.599 1.46701 14.2699 1.46701 13.8655C1.46701 13.5934 1.61848 13.3444 1.8623 13.2157C2.52337 12.8666 2.93403 12.1453 2.93403 11.3332V6.82379C2.93403 4.80151 4.57928 3.15626 6.60156 3.15626C8.62384 3.15626 10.2691 4.80151 10.2691 6.82379Z" fill="#475E88"/>
</svg>
