<svg width="18" height="18" viewBox="0 0 18 18" fill="none" xmlns="http://www.w3.org/2000/svg">
<path d="M13.7812 18H4.21875C1.89253 18 0 16.1072 0 13.7806V7.864C0 6.55632 0.620684 5.30215 1.66029 4.50908L6.44154 0.861831C7.94795 -0.287277 10.0521 -0.287277 11.5585 0.861831L13.0781 2.02005V1.12255C13.1152 0.189511 14.4476 0.190214 14.4844 1.12255V3.44007C14.4844 3.7074 14.3328 3.9516 14.0933 4.07027C13.8537 4.1889 13.5676 4.16141 13.3551 3.99942L10.7059 1.98035C9.70137 1.21411 8.29856 1.21411 7.29432 1.98017L2.51307 5.62742C1.82004 6.15608 1.40625 6.99218 1.40625 7.864V13.7806C1.40625 15.3317 2.66794 16.5935 4.21875 16.5935H13.7812C15.3321 16.5935 16.5938 15.3317 16.5938 13.7806V7.864C16.5938 6.98149 16.1846 6.14254 15.4994 5.61976C15.1906 5.38421 15.1312 4.94294 15.3667 4.63415C15.6022 4.32533 16.0435 4.26594 16.3522 4.50149C17.384 5.28854 18 6.54556 18 7.864V13.7806C18 16.1072 16.1075 18 13.7812 18ZM7.59375 8.11966C7.10835 8.11966 6.71484 8.51322 6.71484 8.99869C6.76129 10.165 8.42664 10.1641 8.47266 8.99869C8.47266 8.51319 8.07915 8.11966 7.59375 8.11966ZM11.2852 8.99866C11.2387 10.165 9.57336 10.1641 9.52734 8.99866C9.57378 7.83236 11.2391 7.83327 11.2852 8.99866ZM8.47266 11.8116C8.42622 12.9779 6.76086 12.977 6.71484 11.8116C6.76129 10.6453 8.42664 10.6462 8.47266 11.8116ZM11.2852 11.8116C11.2387 12.9779 9.57336 12.977 9.52734 11.8116C9.57378 10.6453 11.2391 10.6462 11.2852 11.8116Z" fill="#1C1C1C"/>
<path d="M13.7812 18H4.21875C1.89253 18 0 16.1072 0 13.7806V7.864C0 6.55632 0.620684 5.30215 1.66029 4.50908L6.44154 0.861831C7.94795 -0.287277 10.0521 -0.287277 11.5585 0.861831L13.0781 2.02005V1.12255C13.1152 0.189511 14.4476 0.190214 14.4844 1.12255V3.44007C14.4844 3.7074 14.3328 3.9516 14.0933 4.07027C13.8537 4.1889 13.5676 4.16141 13.3551 3.99942L10.7059 1.98035C9.70137 1.21411 8.29856 1.21411 7.29432 1.98017L2.51307 5.62742C1.82004 6.15608 1.40625 6.99218 1.40625 7.864V13.7806C1.40625 15.3317 2.66794 16.5935 4.21875 16.5935H13.7812C15.3321 16.5935 16.5938 15.3317 16.5938 13.7806V7.864C16.5938 6.98149 16.1846 6.14254 15.4994 5.61976C15.1906 5.38421 15.1312 4.94294 15.3667 4.63415C15.6022 4.32533 16.0435 4.26594 16.3522 4.50149C17.384 5.28854 18 6.54556 18 7.864V13.7806C18 16.1072 16.1075 18 13.7812 18ZM7.59375 8.11966C7.10835 8.11966 6.71484 8.51322 6.71484 8.99869C6.76129 10.165 8.42664 10.1641 8.47266 8.99869C8.47266 8.51319 8.07915 8.11966 7.59375 8.11966ZM11.2852 8.99866C11.2387 10.165 9.57336 10.1641 9.52734 8.99866C9.57378 7.83236 11.2391 7.83327 11.2852 8.99866ZM8.47266 11.8116C8.42622 12.9779 6.76086 12.977 6.71484 11.8116C6.76129 10.6453 8.42664 10.6462 8.47266 11.8116ZM11.2852 11.8116C11.2387 12.9779 9.57336 12.977 9.52734 11.8116C9.57378 10.6453 11.2391 10.6462 11.2852 11.8116Z" fill="white"/>
</svg>
