<svg width="25" height="25" viewBox="0 0 25 25" fill="none" xmlns="http://www.w3.org/2000/svg">
<path d="M23.8786 0.842551L23.8485 0.815106C23.2731 0.289497 22.5272 0 21.7482 0C20.8749 0 20.0364 0.369682 19.4477 1.01417L8.31559 13.2016C8.21413 13.3126 8.13717 13.4437 8.08959 13.5864L6.78061 17.5105C6.62927 17.9642 6.70523 18.4659 6.98376 18.8526C7.26452 19.2422 7.71682 19.4749 8.19378 19.4749C8.40008 19.4749 8.60179 19.4325 8.79305 19.3488L12.583 17.6908C12.7208 17.6305 12.8444 17.542 12.9458 17.431L24.078 5.24362C25.2364 3.9755 25.1471 2.00133 23.8786 0.842551ZM9.28856 16.7856L10.0567 14.483L10.1214 14.412L11.5772 15.7417L11.5125 15.8126L9.28856 16.7856ZM22.4908 3.79377L13.0271 14.1545L11.5713 12.8249L21.035 2.46402C21.2201 2.26137 21.4734 2.14973 21.7483 2.14973C21.9894 2.14973 22.2203 2.23945 22.3991 2.40268L22.4291 2.43013C22.8221 2.78906 22.8497 3.4008 22.4908 3.79377Z" fill="white"/>
<path d="M21.7189 9.91647C21.1253 9.91647 20.6441 10.3977 20.6441 10.9913V20.1167C20.6441 21.624 19.4178 22.8503 17.9106 22.8503H4.88326C3.37594 22.8503 2.14973 21.624 2.14973 20.1167V7.19527C2.14973 5.68802 3.37601 4.46174 4.88326 4.46174H14.3125C14.9061 4.46174 15.3873 3.98049 15.3873 3.38688C15.3873 2.79326 14.9061 2.31201 14.3125 2.31201H4.88326C2.19058 2.31201 0 4.50266 0 7.19527V20.1167C0 22.8093 2.19065 24.9999 4.88326 24.9999H17.9105C20.6031 24.9999 22.7937 22.8093 22.7937 20.1167V10.9913C22.7938 10.3977 22.3126 9.91647 21.7189 9.91647Z" fill="white"/>
</svg>
