<svg width="28" height="28" viewBox="0 0 28 28" fill="none" xmlns="http://www.w3.org/2000/svg">
<rect opacity="0.01" width="28" height="28" fill="white"/>
<path d="M11.5303 18.7628C11.3022 18.7628 11.1411 18.7666 10.9807 18.7628C10.2192 18.7429 9.81552 18.3644 9.80988 17.6398C9.80182 16.5941 9.79457 15.5477 9.81149 14.5013C9.83728 12.9225 11.0452 11.7888 12.7019 11.7742C13.6681 11.7658 14.6342 11.765 15.6004 11.7742C17.1749 11.7903 18.3466 12.875 18.382 14.3764C18.4086 15.4857 18.3957 16.5964 18.3869 17.7056C18.3812 18.392 18.0388 18.6977 17.3184 18.7068C16.6584 18.7153 16.7092 18.5912 16.6834 19.3005C16.652 20.193 16.6222 21.0854 16.5875 21.9778C16.5617 22.6481 16.2039 22.989 15.5077 22.9936C14.5819 23.0005 13.656 23.0005 12.7301 22.9936C12.0412 22.9882 11.6971 22.6627 11.6689 22.0092C11.6213 20.9291 11.5754 19.8482 11.5287 18.7612L11.5303 18.7628ZM11.1241 17.2889C11.3957 17.2889 11.6479 17.2843 11.8985 17.2897C12.5271 17.3042 12.8752 17.5999 12.9195 18.1951C12.959 18.7291 12.9606 19.2661 12.9839 19.8015C13.0097 20.3829 13.0412 20.9644 13.0718 21.578C13.6705 21.578 14.2321 21.5611 14.7922 21.5849C15.1089 21.5979 15.2096 21.4998 15.2144 21.2003C15.2297 20.2688 15.2781 19.3381 15.3071 18.4073C15.3329 17.59 15.6536 17.2912 16.5238 17.2881C16.7052 17.2881 16.8873 17.2881 17.0831 17.2881C17.0831 16.2325 17.1 15.2382 17.0758 14.2454C17.0653 13.805 16.7809 13.4855 16.378 13.281C15.88 13.0282 15.3441 12.9608 14.743 13.0198C14.743 13.1577 14.743 13.2818 14.743 13.4059C14.743 14.0057 14.7503 14.6055 14.7398 15.2053C14.7325 15.6266 14.4699 15.8917 14.0935 15.8894C13.718 15.8871 13.4715 15.622 13.4545 15.1969C13.4481 15.0437 13.4529 14.8904 13.4529 14.7372C13.4529 14.1665 13.4529 13.5966 13.4529 12.9317C12.9477 13.0213 12.494 13.0619 12.0686 13.1875C11.5649 13.3369 11.1644 13.6839 11.1387 14.1941C11.0871 15.2084 11.1233 16.2272 11.1233 17.2897L11.1241 17.2889ZM5.49318 19.9049C5.52058 20.5928 5.53992 21.2815 5.57296 21.9694C5.60599 22.6604 5.97022 22.9936 6.68497 22.9967C7.3425 22.999 8.00004 23.0036 8.65677 22.9951C9.25307 22.9875 9.6189 22.668 9.65114 22.1088C9.69626 21.3198 9.72608 20.5293 9.74783 19.7387C9.76072 19.2867 9.49884 19.0056 9.08224 18.9857C8.64468 18.965 8.3836 19.1994 8.35379 19.6675C8.31914 20.2022 8.3135 20.7384 8.27079 21.2723C8.26193 21.378 8.15073 21.5557 8.07256 21.5626C7.71962 21.5941 7.36184 21.5764 6.98795 21.5764C6.97103 21.3834 6.95411 21.2455 6.94846 21.1076C6.92187 20.4703 6.90737 19.8329 6.87272 19.1963C6.84129 18.6188 6.55523 18.3537 5.94282 18.3054C5.80261 18.2947 5.66159 18.2901 5.49963 18.2825C5.49963 17.629 5.48029 17.0177 5.50527 16.408C5.52944 15.8242 5.95894 15.4642 6.58585 15.455C7.02824 15.4489 7.47224 15.4688 7.91301 15.4389C8.30947 15.4114 8.54799 15.1455 8.53751 14.8154C8.52704 14.4829 8.27482 14.2439 7.87353 14.2355C7.31027 14.2232 6.7446 14.2102 6.18456 14.2485C5.08141 14.3236 4.07335 15.2152 4.02581 16.1896C3.98149 17.0928 4.00647 17.9998 4.01211 18.9053C4.01453 19.2561 4.21598 19.492 4.57617 19.5518C4.85901 19.5985 5.15313 19.584 5.46739 19.5985C5.47465 19.6828 5.48835 19.7954 5.49318 19.908V19.9049ZM23.4868 19.4392C23.8003 19.3557 23.9888 19.1512 23.9888 18.8248C23.9888 17.9829 24.0219 17.1388 23.9743 16.2992C23.905 15.0659 22.9872 14.2546 21.6963 14.2263C21.2668 14.2171 20.8373 14.2186 20.4078 14.2263C19.9429 14.2355 19.6729 14.4515 19.6584 14.8069C19.6439 15.1769 19.9243 15.4297 20.3982 15.4466C20.7866 15.4604 21.1766 15.4466 21.5658 15.4512C22.0783 15.4565 22.4078 15.6726 22.4433 16.1582C22.4949 16.8645 22.4562 17.5762 22.4562 18.2832C21.4908 18.3598 21.2982 18.5598 21.2717 19.4522C21.2507 20.1493 21.216 20.8456 21.1878 21.5527H19.9276C19.8945 20.9222 19.8631 20.314 19.8309 19.7058C19.8051 19.2209 19.5464 18.955 19.1097 18.9658C18.6834 18.9765 18.4215 19.2707 18.4368 19.7487C18.4618 20.5392 18.4932 21.3298 18.5327 22.1196C18.5601 22.6596 18.9147 22.9829 19.4916 22.9921C20.1355 23.002 20.7801 22.9959 21.4239 22.9944C22.2136 22.9928 22.544 22.6956 22.5811 21.9395C22.6198 21.1513 22.648 20.3623 22.6802 19.5725C22.988 19.5227 23.2435 19.5012 23.486 19.4361L23.4868 19.4392ZM11.0798 7.88732C11.0814 6.30162 12.4263 5.01467 14.096 5.00012C15.7648 4.98556 17.1548 6.30085 17.1524 7.89192C17.15 9.48298 15.7591 10.7952 14.0903 10.7806C12.4255 10.7661 11.0774 9.47072 11.079 7.88732H11.0798ZM14.1306 6.34911C13.2176 6.34222 12.4876 7.02782 12.4884 7.89115C12.4884 8.73992 13.2007 9.4217 14.0935 9.42859C15.0138 9.43548 15.7309 8.7606 15.7309 7.88809C15.7309 7.03395 15.0259 6.35601 14.1314 6.34911H14.1306ZM20.5287 9.25853C21.7866 9.26313 22.7995 10.2291 22.8019 11.4249C22.8043 12.6276 21.7551 13.6227 20.4973 13.6119C19.2523 13.6012 18.2217 12.6161 18.2176 11.4341C18.2144 10.2291 19.2507 9.25393 20.5279 9.25853H20.5287ZM20.5126 12.2599C20.9969 12.2599 21.3804 11.9052 21.3917 11.4479C21.403 10.9867 20.9953 10.5876 20.5126 10.5868C20.0251 10.5868 19.631 10.9745 19.6399 11.4471C19.6488 11.9075 20.0267 12.2599 20.5126 12.2599ZM5.37231 11.4165C5.37876 10.2 6.40132 9.24704 7.68819 9.25853C8.94283 9.26925 9.94687 10.2444 9.93881 11.4425C9.93075 12.6375 8.91302 13.6066 7.6608 13.6119C6.39488 13.6173 5.36667 12.6306 5.37231 11.4165ZM7.65918 12.2599C8.13944 12.2576 8.52784 11.8952 8.5359 11.4425C8.54396 10.9806 8.13219 10.5845 7.64871 10.5884C7.18054 10.5914 6.78005 10.9683 6.77199 11.4149C6.76313 11.8814 7.16361 12.2622 7.65999 12.2599H7.65918Z" fill="#1C1C1C"/>
</svg>
