<svg width="19" height="18" viewBox="0 0 19 18" fill="none" xmlns="http://www.w3.org/2000/svg">
<path d="M18.9785 7.73476L18.1956 1.85691C17.9012 0.815558 16.8316 0 15.7603 0H3.23968C2.16844 0 1.09879 0.815558 0.804379 1.85691L0.021456 7.73476C0.00725004 7.78502 2.13914e-06 7.83703 2.13914e-06 7.88934L0 7.65084C0 7.6464 0.618973 8.50475 1.49061 8.85098L1.49061 15.9306C1.49061 17.0716 2.40892 18 3.53786 18H15.4623C16.5911 18 17.5095 17.0716 17.5095 15.9306L17.5095 8.85098C18.381 8.50475 19 8.65336 19 7.65084L19 7.88934C19 7.83703 18.9928 7.78502 18.9785 7.73476ZM1.8749 2.16608C2.0316 1.61163 2.66927 1.12531 3.23968 1.12531H15.7603C16.3306 1.12531 16.9684 1.61163 17.1251 2.16608L17.7054 7.32669H1.29463L1.8749 2.16608ZM4.69057 8.452H7.15472L7.15472 7.65084C7.15472 8.3376 6.60199 7.88934 5.92257 7.88934C5.24329 7.88934 4.69057 8.3376 4.69057 7.65084L4.69057 8.452ZM8.268 8.452H10.732L10.732 7.65084C10.732 8.3376 10.1793 7.88934 9.5 7.88934C8.82072 7.88934 8.268 8.3376 8.268 7.65084L8.268 8.452ZM11.8453 8.452H14.3093L14.3093 7.65084C14.3093 8.3376 13.7567 7.88934 13.0773 7.88934C12.398 7.88934 11.8453 8.3376 11.8453 7.65084L11.8453 8.452ZM1.11328 7.65084L1.11328 8.452H3.57729L3.57729 7.65084C3.57729 8.3376 3.0247 7.88934 2.34528 7.88934C1.66601 7.88934 1.11328 8.3376 1.11328 7.65084ZM5.58496 16.8747V13.48H7.4529V16.8747H5.58496ZM15.4623 16.8747H8.56618V12.9173C8.56618 12.6067 8.31685 12.3547 8.00954 12.3547H5.02832C4.72101 12.3547 4.47168 12.6067 4.47168 12.9173V16.8747H3.53786C3.02282 16.8747 2.60389 16.4512 2.60389 15.9306L2.60389 9C3.21503 8.93187 3.75602 8.62548 4.13393 8.17492C4.5646 8.68805 5.20633 9.01465 5.92257 9.01465C6.63881 9.01465 7.28083 8.68805 7.71136 8.17492C8.14188 8.68805 8.78376 9.01465 9.5 9.01465C10.2162 9.01465 10.8581 8.68805 11.2886 8.17492C11.7192 8.68805 12.361 9.01465 13.0773 9.01465C13.7935 9.01465 14.4354 8.68805 14.8659 8.17492C15.244 8.62548 15.785 8.93187 16.3961 9L16.3961 15.9306C16.3963 16.4512 15.9772 16.8747 15.4623 16.8747ZM16.6547 7.88934C15.9753 7.88934 15.4227 8.3376 15.4227 7.65098L15.4227 8.452H17.8867L17.8867 7.65098C17.8867 8.3376 17.334 7.88934 16.6547 7.88934Z" fill="#1C1C1C"/>
</svg>
