<svg width="28" height="28" viewBox="0 0 28 28" fill="none" xmlns="http://www.w3.org/2000/svg">
<rect opacity="0.01" width="28" height="28" fill="white"/>
<path d="M6.48923 17.4736C6.2224 17.4736 6.01997 17.4828 5.81755 17.4721C5.36823 17.4483 5.02856 17.1505 5.02243 16.6994C5.00709 15.4977 4.97106 14.2923 5.04467 13.0953C5.11061 12.0295 6.07441 10.6606 7.68382 10.715C8.3601 10.7381 9.03791 10.7181 9.71495 10.7189C11.0721 10.7196 12.0942 11.5921 12.3181 12.941C12.3411 13.0792 12.361 13.218 12.3848 13.37H14.0011C14.0011 12.8505 14.0011 12.3433 14.0011 11.8369C14.0011 11.0565 13.998 10.2769 14.0019 9.49654C14.0057 8.7484 14.4719 8.27727 15.2187 8.26269C15.4357 8.25809 15.6534 8.25655 15.8704 8.26269C16.3343 8.27727 16.628 8.57192 16.6165 9.00545C16.6057 9.42057 16.3136 9.69374 15.8681 9.70218C15.6672 9.70602 15.4664 9.70218 15.2494 9.70218V18.5118C15.494 18.5118 15.7209 18.5033 15.9463 18.5133C16.3389 18.531 16.6088 18.8141 16.6165 19.2047C16.6249 19.6121 16.3512 19.9129 15.941 19.929C15.6734 19.9398 15.4042 19.9375 15.1359 19.9305C14.4726 19.9121 14.0072 19.4502 14.0034 18.7857C13.9957 17.6217 14.0011 16.4584 14.0011 15.2944C14.0011 15.1563 14.0011 15.0174 14.0011 14.8532H12.3725C12.3725 15.3282 12.3725 15.7962 12.3725 16.2643C12.3725 17.2403 12.1724 17.4444 11.1948 17.4767C11.1212 17.479 11.0476 17.492 10.8689 17.512C10.8689 18.3867 10.872 19.253 10.8681 20.1185C10.8658 20.6173 10.8597 21.1161 10.8413 21.6148C10.8168 22.2724 10.4802 22.597 9.82919 22.5993C9.11381 22.6024 8.39844 22.6008 7.68306 22.5993C6.91017 22.5985 6.60117 22.2962 6.5797 21.5089C6.54673 20.3073 6.51913 19.1057 6.48999 17.9041C6.48692 17.7782 6.48999 17.6524 6.48999 17.4728L6.48923 17.4736ZM6.26227 16.0241C6.36194 16.0349 6.45012 16.0617 6.5337 16.051C7.35565 15.9482 7.7559 16.4216 7.76127 17.2664C7.7697 18.5056 7.82261 19.7449 7.85711 20.9841C7.86094 21.1068 7.87321 21.2289 7.88088 21.3424H9.5662C9.5662 21.1866 9.56313 21.06 9.5662 20.9327C9.603 19.6551 9.63597 18.3775 9.67968 17.0999C9.70575 16.3548 10.0124 16.064 10.7455 16.0525C10.8681 16.051 10.9901 16.0379 11.1258 16.0295C11.1258 15.0849 11.1733 14.1772 11.112 13.2764C11.0514 12.3847 10.5024 11.9489 9.6122 11.9481C8.98653 11.9481 8.36086 11.9474 7.7352 11.9481C6.97304 11.9497 6.33741 12.4185 6.2776 13.1804C6.20476 14.1173 6.25997 15.0642 6.25997 16.0241H6.26227ZM8.6783 5.00005C10.0945 5.00849 11.2362 6.15716 11.2316 7.5675C11.227 8.97323 10.07 10.1288 8.66373 10.1311C7.23987 10.1342 6.08975 8.96939 6.09818 7.5345C6.10738 6.1211 7.25674 4.99161 8.6783 5.00005ZM9.94114 7.5652C9.94267 6.85389 9.36071 6.26766 8.65606 6.27226C7.95985 6.2761 7.39476 6.84008 7.38556 7.53987C7.37559 8.26115 7.93762 8.84355 8.64916 8.85122C9.35687 8.8589 9.93961 8.27957 9.94114 7.56596V7.5652ZM19.3016 9.08833C18.3486 9.09983 17.5373 9.72827 17.3365 10.6544C17.2674 10.9736 17.2836 11.3151 17.2836 11.6458C17.2836 12.0793 17.5849 12.3832 17.9882 12.3847C18.3915 12.3855 18.6698 12.0885 18.7043 11.6496C18.7281 11.3458 18.7687 11.0412 18.8301 10.7427C18.8914 10.4426 19.0785 10.2992 19.4067 10.3114C19.9296 10.3321 20.4533 10.3145 20.9762 10.3176C21.434 10.3199 21.6648 10.4979 21.7376 10.9506C21.7798 11.213 21.7598 11.4847 21.7729 11.7517C21.7905 12.1077 22.0435 12.3732 22.3679 12.384C22.7014 12.3947 22.969 12.153 22.9859 11.7885C23.0012 11.4578 23.0074 11.1217 22.9682 10.7933C22.8517 9.81651 22.042 9.1029 21.0621 9.08833C20.7684 9.08372 20.4748 9.08833 20.1811 9.08833C19.8874 9.08833 19.5938 9.08526 19.3001 9.08833H19.3016ZM19.1429 19.7418C18.2857 19.7602 17.6056 20.2467 17.3901 21.0754C17.2859 21.4752 17.2928 21.9095 17.2866 22.3284C17.2805 22.7604 17.5281 23.0075 17.9016 22.9998C18.2819 22.9922 18.5058 22.7082 18.4996 22.2655C18.4966 22.0238 18.4966 21.7775 18.5357 21.5404C18.6054 21.1191 18.7902 20.9741 19.2112 20.971C19.7862 20.9672 20.3613 20.9664 20.9371 20.971C21.4202 20.9756 21.6671 21.1805 21.7453 21.6601C21.7798 21.8726 21.7736 22.0921 21.7752 22.3092C21.7775 22.7228 22.0129 22.996 22.3809 22.9998C22.7382 23.0037 22.9736 22.7635 22.9935 22.3606C23.0035 22.1565 23.0005 21.9509 22.9943 21.7468C22.9606 20.6273 22.108 19.7755 20.9847 19.7426C20.678 19.7333 20.3713 19.741 20.0646 19.741C19.7579 19.7403 19.4512 19.7341 19.1445 19.741L19.1429 19.7418ZM21.9853 6.84315C21.9868 7.86829 21.1633 8.69853 20.1435 8.70083C19.1253 8.70236 18.2957 7.87289 18.2934 6.85005C18.2911 5.82031 19.1069 5.00312 20.1366 5.00158C21.1702 5.00081 21.9837 5.81034 21.9845 6.84238L21.9853 6.84315ZM20.1251 6.2738C19.8223 6.28301 19.5761 6.54313 19.5792 6.85082C19.5823 7.18077 19.8445 7.42554 20.175 7.40713C20.487 7.39025 20.7163 7.13473 20.7033 6.82013C20.6902 6.51627 20.4242 6.26382 20.1251 6.27303V6.2738ZM19.9994 19.3175C18.9781 19.3121 18.1484 18.4742 18.1576 17.459C18.1669 16.4446 19.0118 15.6113 20.0255 15.6182C21.0445 15.6251 21.868 16.463 21.8603 17.4851C21.8519 18.5156 21.0322 19.3236 20.0002 19.3175H19.9994ZM20.0124 16.9104C19.7004 16.9104 19.4512 17.1559 19.4473 17.4659C19.4435 17.7728 19.6919 18.0345 19.9956 18.0452C20.3061 18.056 20.5921 17.7736 20.5859 17.4628C20.5798 17.1605 20.3191 16.9104 20.0124 16.9104Z" fill="#1C1C1C"/>
</svg>
