<svg width="28" height="28" viewBox="0 0 28 28" fill="none" xmlns="http://www.w3.org/2000/svg">
<rect opacity="0.01" width="28" height="28" fill="white"/>
<path d="M21.4994 15.2273L20.7698 14.6266C20.27 14.2152 20.2708 13.4504 20.7698 13.0398L21.4994 12.4391C22.0187 12.0116 22.1515 11.2786 21.8152 10.6961L20.3744 8.2006C20.0381 7.6181 19.3367 7.36666 18.707 7.60255L17.822 7.93412C17.2158 8.16117 16.554 7.77822 16.4477 7.1407L16.2924 6.20844C16.1818 5.54502 15.6134 5.06348 14.9408 5.06348H12.0593C11.3866 5.06348 10.8182 5.54502 10.7076 6.20847L10.5523 7.1407C10.4458 7.77935 9.78309 8.16079 9.17801 7.93415L8.29299 7.60255C7.66325 7.36666 6.96195 7.61813 6.62558 8.2006L5.18485 10.696C4.84855 11.2785 4.98133 12.0116 5.50063 12.4391L6.23026 13.0397C6.73013 13.4512 6.72914 14.2159 6.23026 14.6266L5.50059 15.2272C4.98133 15.6548 4.84852 16.3878 5.18481 16.9703L6.62558 19.4657C6.96191 20.0482 7.66308 20.2997 8.29299 20.0638L9.17798 19.7322C9.78429 19.5051 10.446 19.8883 10.5522 20.5256L10.7076 21.4578C10.8182 22.1214 11.3866 22.6029 12.0592 22.6029H14.9407C15.6133 22.6029 16.1818 22.1214 16.2923 21.4579L16.4477 20.5257C16.5541 19.8872 17.2168 19.5055 17.822 19.7323L18.707 20.0638C19.3369 20.2998 20.0381 20.0483 20.3744 19.4658L21.8152 16.9703C22.1515 16.3878 22.0187 15.6548 21.4994 15.2273ZM19.1877 18.7806L18.3027 18.4491C16.888 17.9191 15.344 18.8132 15.0961 20.3004L14.9408 21.2326H12.0593L11.9039 20.3004C11.6556 18.8103 10.1093 17.9201 8.69729 18.4491L7.81227 18.7806L6.37153 16.2852L7.10117 15.6845C8.26757 14.7243 8.26514 12.9401 7.10117 11.9819L6.37153 11.3812L7.8123 8.88573L8.69729 9.21731C10.1121 9.74726 11.656 8.85316 11.9039 7.36597L12.0592 6.43374H14.9407L15.0961 7.36597C15.3445 8.85621 16.8908 9.74616 18.3027 9.21731L19.1877 8.88573L20.6288 11.3809C20.6288 11.3809 20.6287 11.381 20.6284 11.3812L19.8988 11.9818C18.7324 12.942 18.7348 14.7262 19.8988 15.6845L20.6284 16.2851L19.1877 18.7806ZM13.5 10.4532C11.6363 10.4532 10.12 11.9695 10.12 13.8332C10.12 15.6969 11.6363 17.2132 13.5 17.2132C15.3637 17.2132 16.88 15.6969 16.88 13.8332C16.88 11.9695 15.3637 10.4532 13.5 10.4532ZM13.5 15.8429C12.3918 15.8429 11.4903 14.9414 11.4903 13.8332C11.4903 12.725 12.3918 11.8235 13.5 11.8235C14.6082 11.8235 15.5097 12.725 15.5097 13.8332C15.5097 14.9414 14.6082 15.8429 13.5 15.8429Z" fill="black"/>
</svg>
