<svg width="14" height="16" viewBox="0 0 14 16" fill="none" xmlns="http://www.w3.org/2000/svg">
<path d="M9.18131 7.41891C10.2051 6.67225 10.8718 5.46387 10.8718 4.10256C10.8718 1.84041 9.03137 0 6.76922 0C4.50706 0 2.66666 1.84041 2.66666 4.10256C2.66666 5.46387 3.33331 6.67225 4.35712 7.41891C1.81213 8.39281 0 10.8603 0 13.7436C0 14.9878 1.01222 16 2.25641 16H11.282C12.5262 16 13.5384 14.9878 13.5384 13.7436C13.5384 10.8603 11.7263 8.39281 9.18131 7.41891ZM3.89744 4.10256C3.89744 2.51906 5.18572 1.23078 6.76922 1.23078C8.35272 1.23078 9.641 2.51906 9.641 4.10256C9.641 5.68606 8.35272 6.97437 6.76922 6.97437C5.18572 6.97437 3.89744 5.68606 3.89744 4.10256ZM11.282 14.7692H2.25641C1.69087 14.7692 1.23078 14.3091 1.23078 13.7436C1.23078 10.6896 3.71528 8.20509 6.76925 8.20509C9.82322 8.20509 12.3077 10.6896 12.3077 13.7436C12.3077 14.3091 11.8476 14.7692 11.282 14.7692Z" fill="white"/>
</svg>
