<svg width="28" height="28" viewBox="0 0 28 28" fill="none" xmlns="http://www.w3.org/2000/svg">
<rect opacity="0.01" width="28" height="28" fill="white"/>
<path d="M6.54767 17.7563C6.27038 17.7563 6.06002 17.7657 5.84966 17.7547C5.38273 17.7304 5.02974 17.426 5.02337 16.9645C5.00743 15.7357 4.96998 14.5029 5.04648 13.2788C5.115 12.1888 6.1166 10.7889 7.78911 10.8446C8.4919 10.8681 9.19628 10.8477 9.89986 10.8485C11.3102 10.8493 12.3724 11.7415 12.605 13.121C12.6289 13.2623 12.6497 13.4043 12.6744 13.5597H14.354C14.354 13.0284 14.354 12.5097 14.354 11.9918C14.354 11.1938 14.3509 10.3965 14.3548 9.59846C14.3588 8.83336 14.8433 8.35155 15.6194 8.33664C15.8449 8.33193 16.0712 8.33036 16.2967 8.33664C16.7787 8.35155 17.0839 8.65288 17.072 9.09624C17.0608 9.52077 16.7572 9.80013 16.2943 9.80876C16.0855 9.81268 15.8768 9.80876 15.6513 9.80876V18.818C15.9054 18.818 16.1413 18.8094 16.3756 18.8196C16.7835 18.8376 17.064 19.1272 17.072 19.5266C17.0807 19.9433 16.7963 20.2509 16.37 20.2674C16.0919 20.2784 15.8122 20.276 15.5333 20.269C14.8441 20.2501 14.3604 19.7777 14.3564 19.0982C14.3485 17.9078 14.354 16.7181 14.354 15.5277C14.354 15.3865 14.354 15.2445 14.354 15.0765H12.6616C12.6616 15.5623 12.6616 16.0409 12.6616 16.5196C12.6616 17.5178 12.4536 17.7265 11.4377 17.7595C11.3612 17.7618 11.2847 17.7751 11.0991 17.7956C11.0991 18.6901 11.1023 19.5761 11.0983 20.4612C11.0959 20.9713 11.0895 21.4813 11.0704 21.9914C11.0449 22.6639 10.6951 22.9958 10.0186 22.9982C9.27516 23.0013 8.53174 22.9998 7.78831 22.9982C6.98512 22.9974 6.66401 22.6882 6.6417 21.8831C6.60743 20.6543 6.57875 19.4254 6.54847 18.1965C6.54528 18.0678 6.54847 17.9392 6.54847 17.7555L6.54767 17.7563ZM6.31182 16.274C6.4154 16.285 6.50704 16.3124 6.59389 16.3015C7.44807 16.1963 7.86401 16.6805 7.86958 17.5444C7.87835 18.8118 7.93333 20.0791 7.96919 21.3464C7.97317 21.4719 7.98592 21.5967 7.99389 21.7128H9.74528C9.74528 21.5535 9.74209 21.4241 9.74528 21.2938C9.78353 19.9872 9.81779 18.6807 9.86321 17.3742C9.8903 16.6122 10.209 16.3148 10.9708 16.303C11.0983 16.3015 11.225 16.2881 11.366 16.2795C11.366 15.3135 11.4154 14.3852 11.3517 13.4639C11.2887 12.5521 10.7182 12.1064 9.79309 12.1056C9.14289 12.1056 8.49269 12.1048 7.84249 12.1056C7.05046 12.1072 6.3899 12.5866 6.32775 13.3659C6.25206 14.324 6.30943 15.2923 6.30943 16.274H6.31182ZM8.82257 5.00005C10.2943 5.00868 11.4807 6.18339 11.476 7.62569C11.4712 9.06328 10.2688 10.2451 8.80743 10.2474C7.32775 10.2506 6.13253 9.05936 6.1413 7.59195C6.15086 6.14651 7.34528 4.99142 8.82257 5.00005ZM10.1349 7.62334C10.1365 6.89591 9.53174 6.29639 8.79947 6.3011C8.07596 6.30502 7.48871 6.88179 7.47915 7.59744C7.46879 8.33507 8.05285 8.93067 8.79229 8.93851C9.52775 8.94636 10.1333 8.3539 10.1349 7.62412V7.62334ZM19.7046 16.9128C19.6632 16.9128 19.6218 16.912 19.5803 16.9096C17.7333 16.8194 16.5915 14.7156 16.5437 14.6261C16.4521 14.455 16.4521 14.2502 16.5437 14.0792C16.5915 13.9897 17.7333 11.8851 19.5803 11.7956C20.7532 11.7384 21.872 12.4901 22.9015 14.0289C23.0329 14.2251 23.0329 14.4801 22.9015 14.6763C21.9086 16.161 20.8337 16.9128 19.7054 16.9128H19.7046ZM17.77 14.3554C18.1246 14.8835 18.8369 15.6972 19.6417 15.7349C20.4218 15.7702 21.1461 15.064 21.6744 14.353C21.1453 13.6413 20.4186 12.9335 19.6385 12.9711C18.7811 13.0127 18.0783 13.8971 17.77 14.3554ZM19.7365 13.7943C19.4234 13.7943 19.1692 14.0446 19.1692 14.353C19.1692 14.6614 19.4234 14.9117 19.7365 14.9117C20.0497 14.9117 20.3038 14.6614 20.3038 14.353C20.3038 14.0446 20.0497 13.7943 19.7365 13.7943Z" fill="#1C1C1C"/>
</svg>
